<mxfile host="app.diagrams.net" modified="2023-02-07T22:40:13.782Z" agent="5.0 (Windows NT 10.0; Win64; x64) AppleWebKit/537.36 (KHTML, like Gecko) Chrome/109.0.0.0 Safari/537.36" etag="gqDfowKtvYeHsSBcRxYU" version="20.8.18" type="github">
  <diagram name="Página-1" id="LgZ5IDJ4cyhRu_qzjha-">
    <mxGraphModel dx="1194" dy="709" grid="1" gridSize="10" guides="1" tooltips="1" connect="1" arrows="1" fold="1" page="1" pageScale="1" pageWidth="827" pageHeight="1169" math="0" shadow="0">
      <root>
        <mxCell id="0" />
        <mxCell id="1" parent="0" />
        <mxCell id="9fh8OU5REE_RhAgqPOsK-1" value="INÍCIO" style="rounded=1;whiteSpace=wrap;html=1;" vertex="1" parent="1">
          <mxGeometry x="370" width="120" height="60" as="geometry" />
        </mxCell>
        <mxCell id="9fh8OU5REE_RhAgqPOsK-3" value="INSIRA&amp;nbsp; O PRIMEIRO VALOR" style="rounded=0;whiteSpace=wrap;html=1;" vertex="1" parent="1">
          <mxGeometry x="370" y="90" width="120" height="60" as="geometry" />
        </mxCell>
        <mxCell id="9fh8OU5REE_RhAgqPOsK-6" value="" style="edgeStyle=orthogonalEdgeStyle;rounded=0;orthogonalLoop=1;jettySize=auto;html=1;" edge="1" parent="1" source="9fh8OU5REE_RhAgqPOsK-4" target="9fh8OU5REE_RhAgqPOsK-5">
          <mxGeometry relative="1" as="geometry" />
        </mxCell>
        <mxCell id="9fh8OU5REE_RhAgqPOsK-4" value="INSIRA O SEGUNDO VALOR" style="rounded=0;whiteSpace=wrap;html=1;" vertex="1" parent="1">
          <mxGeometry x="370" y="170" width="120" height="60" as="geometry" />
        </mxCell>
        <mxCell id="9fh8OU5REE_RhAgqPOsK-5" value="A DIVISÃO DO PRIMEIRO VALOR COM O SEGUNDO VALOR INSERIDO É MA" style="rhombus;whiteSpace=wrap;html=1;rounded=0;" vertex="1" parent="1">
          <mxGeometry x="210" y="260" width="440" height="160" as="geometry" />
        </mxCell>
      </root>
    </mxGraphModel>
  </diagram>
</mxfile>
